<svg xmlns="http://www.w3.org/2000/svg" viewBox="0 0 280 280" role="img" aria-label="Yellow Wall Ventures mark">
  <title>Yellow Wall Ventures mark</title>
  <rect x="20"  y="20"  width="48" height="48" rx="6" fill="#F5C518"/>
  <rect x="80"  y="20"  width="48" height="48" rx="6" fill="#D9A300"/>
  <rect x="140" y="20"  width="48" height="48" rx="6" fill="#F8D34A"/>
  <rect x="200" y="20"  width="48" height="48" rx="6" fill="#FBE38A"/>
  <rect x="20"  y="80"  width="48" height="48" rx="6" fill="#FBE38A"/>
  <rect x="80"  y="80"  width="48" height="48" rx="6" fill="#F5C518"/>
  <rect x="140" y="80"  width="48" height="48" rx="6" fill="#D9A300"/>
  <rect x="200" y="80"  width="48" height="48" rx="6" fill="#F8D34A"/>
  <rect x="20"  y="140" width="48" height="48" rx="6" fill="#D9A300"/>
  <rect x="80"  y="140" width="48" height="48" rx="6" fill="#F8D34A"/>
  <rect x="140" y="140" width="48" height="48" rx="6" fill="#F5C518"/>
  <rect x="200" y="140" width="48" height="48" rx="6" fill="#FBE38A"/>
  <rect x="20"  y="200" width="48" height="48" rx="6" fill="#F8D34A"/>
  <rect x="80"  y="200" width="48" height="48" rx="6" fill="#FBE38A"/>
  <rect x="140" y="200" width="48" height="48" rx="6" fill="#F5C518"/>
  <rect x="200" y="200" width="48" height="48" rx="6" fill="#D9A300"/>
</svg>
